<?xml version="1.0" encoding="UTF-8" standalone="no"?>
<!-- Created with Inkscape (http://www.inkscape.org/) -->

<svg
   width="210mm"
   height="297mm"
   viewBox="0 0 210 297"
   version="1.1"
   id="svg1"
   xml:space="preserve"
   inkscape:version="1.3 (0e150ed6c4, 2023-07-21)"
   sodipodi:docname="body.svg"
   xmlns:inkscape="http://www.inkscape.org/namespaces/inkscape"
   xmlns:sodipodi="http://sodipodi.sourceforge.net/DTD/sodipodi-0.dtd"
   xmlns="http://www.w3.org/2000/svg"
   xmlns:svg="http://www.w3.org/2000/svg"><sodipodi:namedview
     id="namedview1"
     pagecolor="#ffffff"
     bordercolor="#666666"
     borderopacity="1.0"
     inkscape:showpageshadow="2"
     inkscape:pageopacity="0.0"
     inkscape:pagecheckerboard="0"
     inkscape:deskcolor="#d1d1d1"
     inkscape:document-units="mm"
     showguides="true"
     inkscape:zoom="1.4142136"
     inkscape:cx="470.22601"
     inkscape:cy="665.74104"
     inkscape:window-width="1920"
     inkscape:window-height="1017"
     inkscape:window-x="1912"
     inkscape:window-y="-8"
     inkscape:window-maximized="1"
     inkscape:current-layer="layer6"><sodipodi:guide
       position="110.2238,253.66143"
       orientation="0,-1"
       id="guide11"
       inkscape:locked="false" /></sodipodi:namedview><defs
     id="defs1" /><g
     inkscape:groupmode="layer"
     id="layer5"
     inkscape:label="silhouette"
     style="display:inline;opacity:0.259"><path
       style="fill:#93a6ac;fill-opacity:1;stroke:#00125a;stroke-width:0.264583px;stroke-linecap:butt;stroke-linejoin:miter;stroke-opacity:1"
       d="m 97.750441,59.439397 1.081873,3.372897 0.06364,4.772972 c 0,0 0.67595,1.40007 -1.666673,3.11834 0,0 -4.760927,2.863784 -7.433791,2.291027 0,0 -2.672864,-0.170469 -13.555237,3.627456 0,0 -5.473007,1.020612 -14.573472,0.572757 -0.572755,-0.447854 -7.764031,-1.654628 -12.282443,-0.827315 0,0 -13.1734,1.65463 -15.655345,1.84555 0,0 -5.027528,-0.552304 -8.909545,0.827314 L 8.2349998,80.46 v 0 l 0.5850001,1.845 8.9550001,0.629999 0.36,1.530001 7.245,0.045 3.24,-1.664999 21.284999,2.52 c 0,0 6.075,0.944999 9.944999,0.135001 0,0 10.215002,-0.135002 14.850002,1.079998 4.635,1.215 5.85,1.935 8.1,4.275 2.25,2.34 4.185,2.385 5.535,9.18 0,0 0.992896,8.89177 -0.0032,16.17093 l -0.847112,6.19043 -1.189356,8.06484 c -0.637322,4.32158 -1.909187,11.32785 0,28.38327 0,0 2.612766,19.21916 2.612766,24.05577 0,4.83661 -3.114778,16.5463 0,33.72899 3.114778,17.1827 2.096545,21.12835 2.096545,21.12835 0,0 -2.418308,7.89131 -4.200216,8.27315 -1.781907,0.38184 5.600285,2.92742 9.036826,0.76368 L 96.39,239.31 c 0,0 0.315,-0.72 0.18,-4.05 -0.135,-3.33 -0.495,-9.63 0.99,-18.135 0,0 2.25,-9.99 1.08,-19.26 0,0 -0.81,-1.755 1.259999,-10.8 0,0 0.945001,-4.86 0.990001,-10.62 0,0 -0.36,-5.4 1.575,-16.47 1.935,-11.07 1.485,-12.15 1.485,-12.15 0,0 0.315,6.255 2.205,16.785 0,0 1.035,9.27 1.215,13.86 0.18,4.59 0.765,8.325 1.08,10.215 0.315,1.89 1.125,3.465 1.17,11.925 0.045,8.46 -0.765,3.96 1.17,17.325 1.935,13.365 0.045,19.035 0.135,20.475 0.09,1.44 0.945,1.665 1.26,8.19 0,0 8.60298,2.03996 9.55757,-1.71478 0,0 -3.81837,-2.86378 -4.64569,-6.93672 0,0 -0.007,-8.71863 1.14551,-13.93707 1.1522,-5.21845 2.54559,-24.11942 1.46372,-28.89239 -1.08188,-4.77297 -0.25456,-16.80085 -0.19092,-19.15552 0.0636,-2.35467 3.18198,-25.87062 3.18198,-28.14518 0,-2.27455 -0.50912,-14.81156 -1.78191,-20.03 0,0 -5.26526,-24.37834 2.74474,-35.17834 0,0 1.53,-5.040001 12.87,-6.210001 0,0 10.35,-1.619999 16.2,1e-6 0,0 1.98,0.09 4.68,-0.99 0,0 0.9,0.27 21.15,-2.97 l 4.77,1.71 6.39,-0.81 1.89,-1.08 8.1,-0.36 0.81,-0.99 -0.45,-0.489984 L 185.31,78.48 c 0,0 -7.65,-0.36 -9.99,-0.54 -2.34,-0.18 -25.65,-2.88 -29.07,-0.9 -3.42,1.98 -23.7751,-2.79 -24.3,-3.78 -0.5249,-0.99 -6.39,-0.72 -7.65,-0.9 -1.26,-0.18 -3.51,-1.62 -4.14,-3.24 l 0.135,-6.435 1.125,-3.285 0.63,-6.39 c 0,0 1.73606,-10.053263 -7.65,-11.198776 0,0 -6.713198,-0.06364 -7.604154,7.700392 0,0 -0.509117,1.65463 0.954595,9.927781 z"
       id="path27"
       sodipodi:nodetypes="cccccccccccccccccccsscscscsscsccsccccsccsssssccccssscccccccccccccssssccccccc"
       inkscape:label="outline" /><path
       style="fill:none;stroke:#0a1d60;stroke-width:0.264583px;stroke-linecap:butt;stroke-linejoin:miter;stroke-opacity:1"
       d="m 101.5833,147.825 h 2.3667 2.14608"
       id="path35" /></g><g
     inkscape:groupmode="layer"
     id="layer6"
     inkscape:label="pom"><path
       style="fill:none;stroke:#000000;stroke-width:0.264583px;stroke-linecap:butt;stroke-linejoin:miter;stroke-opacity:1"
       d="M 98.864133,65.19878 H 110.2651"
       id="path1"
       inkscape:label="neck" /><path
       style="fill:none;stroke:#000000;stroke-width:0.264583px;stroke-linecap:butt;stroke-linejoin:miter;stroke-opacity:1"
       d="m 68.283213,77.283669 v 8.402942"
       id="path2"
       inkscape:label="rbicep" /><path
       style="fill:none;stroke:#000000;stroke-width:0.252408px;stroke-linecap:butt;stroke-linejoin:miter;stroke-opacity:1"
       d="m 136.30775,76.840132 v 9.583427"
       id="path3"
       inkscape:label="bicep" /><path
       style="fill:none;stroke:#000000;stroke-width:0.264583px;stroke-linecap:butt;stroke-linejoin:miter;stroke-opacity:1"
       d="M 86.935206,95.426031 H 122.17135"
       id="path4"
       inkscape:label="chest" /><path
       style="fill:none;stroke:#000000;stroke-width:0.264583px;stroke-linecap:butt;stroke-linejoin:miter;stroke-opacity:1"
       d="M 86.935206,73.619391 121.95,73.259999"
       id="path5"
       inkscape:label="shoulder" /><path
       style="fill:none;stroke:#000000;stroke-width:0.264583px;stroke-linecap:butt;stroke-linejoin:miter;stroke-opacity:1"
       d="M 88.664824,112.70892 H 119.17548"
       id="path6"
       inkscape:label="waist" /><path
       style="fill:none;stroke:#000000;stroke-width:0.264583px;stroke-linecap:butt;stroke-linejoin:miter;stroke-opacity:1"
       d="M 85.287365,143.31035 H 122.63662"
       id="path7"
       inkscape:label="hip" /><path
       style="fill:none;stroke:#000000;stroke-width:0.264583px;stroke-linecap:butt;stroke-linejoin:miter;stroke-opacity:1"
       d="M 85.287365,137.69726 H 122.26244"
       id="path8"
       inkscape:label="lowerabdomen" /><path
       style="fill:none;stroke:#000000;stroke-width:0.264583px;stroke-linecap:butt;stroke-linejoin:miter;stroke-opacity:1"
       d="M 88.109191,173.41136 H 100.93434"
       id="path10"
       inkscape:label="rthigh" /><path
       style="fill:none;stroke:#000000;stroke-width:0.264583px;stroke-linecap:butt;stroke-linejoin:miter;stroke-opacity:1"
       d="m 107.01472,173.27907 h 12.72203"
       id="path11"
       inkscape:label="lthigh" /><path
       style="fill:none;stroke:#000000;stroke-width:0.264583px;stroke-linecap:butt;stroke-linejoin:miter;stroke-opacity:1"
       d="M 98.954311,205.21752 H 87.463952"
       id="path12"
       inkscape:label="rcalf" /><path
       style="fill:none;stroke:#000000;stroke-width:0.264583px;stroke-linecap:butt;stroke-linejoin:miter;stroke-opacity:1"
       d="m 119.98931,205.8675 h -10.4489"
       id="path13"
       inkscape:label="lcalf" /><path
       style="fill:none;stroke:#000000;stroke-width:0.264583px;stroke-linecap:butt;stroke-linejoin:miter;stroke-opacity:1"
       d="M 103.83969,150.94479 H 85.460416"
       id="path14"
       inkscape:label="rupperthigh" /><path
       style="fill:none;stroke:#000000;stroke-width:0.263303px;stroke-linecap:butt;stroke-linejoin:miter;stroke-opacity:1"
       d="M 122.42133,150.94479 H 104.1554"
       id="path15"
       inkscape:label="lupperthigh" /></g></svg>
