<svg xmlns="http://www.w3.org/2000/svg" xmlns:xlink="http://www.w3.org/1999/xlink" fill="none" version="1.1" width="265" height="134.5" viewBox="0 0 265 134.5"><g><g><g><path d="M118,25.5Q122.5,58.5,155,59.5L158,59.5L129.5,17L126,17L118,25.5Z" fill="#FF9926" fill-opacity="1"/></g><g><path d="M119.5,52L126.5,76.4999L132,76.4999L132,65.9999L119.5,52Z" fill="#00E4C5" fill-opacity="1"/></g><g><path d="M172.7518,83.8318L172.7536,83.8346Q172.85649999999998,83.9882,172.99349999999998,84.1122Q173.13049999999998,84.2362,173.2936,84.3232Q173.45659999999998,84.4103,173.6359,84.4551Q173.8152,84.5,174,84.5Q174.0737,84.5,174.147,84.4928Q174.22039999999998,84.4856,174.2926,84.4712Q174.3649,84.4568,174.43540000000002,84.4354Q174.5059,84.414,174.574,84.3858Q174.6421,84.3576,174.7071,84.3229Q174.7721,84.2881,174.83339999999998,84.2472Q174.8946,84.2063,174.95159999999998,84.1595Q175.0086,84.1128,175.0607,84.0607Q175.1128,84.0085,175.15949999999998,83.9516Q175.2063,83.8946,175.24720000000002,83.8333Q175.2881,83.7721,175.3229,83.7071Q175.3576,83.6421,175.38580000000002,83.574Q175.414,83.5059,175.43540000000002,83.4354Q175.4568,83.3649,175.4712,83.2926Q175.4856,83.2204,175.4928,83.147Q175.5,83.0737,175.5,83Q175.5,82.7771,175.4352,82.5639Q175.37040000000002,82.3506,175.2464,82.1654L175.24450000000002,82.1626L159.1842,58.178L134.7466,21.6657Q131.8819,17.3687,128.5,15.5589L128.5,0L102.5,0L102.5,1.5Q102.5,20.1119,104.52116,30.2543Q105.33869,35.8549,111.1544,43.9969Q111.70661,44.77,112.30485,45.5677Q124.40299999999999,62.6068,125.2109,87L115,87Q114.9263,87,114.853,87.0072Q114.7796,87.0145,114.7074,87.0288Q114.6351,87.0432,114.5646,87.0646Q114.4941,87.086,114.426,87.1142Q114.3579,87.1424,114.2929,87.1771Q114.2279,87.2118,114.1666,87.2528Q114.1054,87.2937,114.0484,87.3405Q113.99145,87.3872,113.93934,87.4393Q113.88723,87.4914,113.84048,87.5484Q113.79374,87.6054,113.75279,87.6666Q113.71185,87.7279,113.67712,87.7929Q113.64238,87.8579,113.61418,87.926Q113.58598,87.994,113.56459,88.0646Q113.5432,88.1351,113.52882,88.2074Q113.51445,88.2796,113.50722,88.353Q113.5,88.4263,113.5,88.5Q113.5,88.5737,113.50722,88.647Q113.51445,88.7204,113.52882,88.7926Q113.5432,88.8649,113.56459,88.9354Q113.58598,89.0059,113.61418,89.074Q113.64238,89.1421,113.67712,89.2071Q113.71185,89.2721,113.75279,89.3333Q113.79374,89.3946,113.84048,89.4516Q113.88723,89.5086,113.93934,89.5607Q113.99145,89.6128,114.0484,89.6595Q114.1054,89.7063,114.1666,89.7472Q114.2279,89.7881,114.2929,89.8229Q114.3579,89.8576,114.426,89.8858Q114.4941,89.914,114.5646,89.9354Q114.6351,89.9568,114.7074,89.9712Q114.7796,89.9855,114.853,89.9928Q114.9263,90,115,90L140,90L140,88.5Q140,82.9912,138.8076,78L144,78L144,64Q144,63.9263,143.9928,63.853Q143.9856,63.7796,143.9712,63.7074Q143.9568,63.6351,143.93540000000002,63.5646Q143.914,63.494,143.88580000000002,63.426Q143.8576,63.3579,143.8229,63.2929Q143.7881,63.2279,143.7472,63.1666Q143.7063,63.1054,143.6595,63.0484Q143.6128,62.9914,143.5607,62.9393Q143.5086,62.8872,143.45159999999998,62.8405Q143.3946,62.7937,143.3333,62.7528Q143.2721,62.7119,143.2071,62.6771Q143.1421,62.6424,143.074,62.6142Q143.0059,62.586,142.93540000000002,62.5646Q142.8649,62.5432,142.7926,62.5288Q142.72039999999998,62.5145,142.647,62.5072Q142.5737,62.5,142.5,62.5Q142.4263,62.5,142.353,62.5072Q142.27960000000002,62.5145,142.2074,62.5288Q142.1351,62.5432,142.06459999999998,62.5646Q141.9941,62.586,141.926,62.6142Q141.8579,62.6424,141.7929,62.6771Q141.7279,62.7119,141.66660000000002,62.7528Q141.6054,62.7937,141.54840000000002,62.8405Q141.4914,62.8872,141.4393,62.9393Q141.3872,62.9914,141.3405,63.0484Q141.2937,63.1054,141.2528,63.1666Q141.2119,63.2279,141.1771,63.2929Q141.1424,63.3579,141.11419999999998,63.426Q141.086,63.494,141.06459999999998,63.5646Q141.0432,63.6351,141.0288,63.7074Q141.0144,63.7796,141.0072,63.853Q141,63.9263,141,64L141,75L138,75Q137.9842,75,137.9683,75.0003Q136.297,69.8105,133.2507,65.2175Q131.63060000000002,62.7749,129.6235,60.5061L129.5931,60.4718L129.5607,60.4393Q120.1698,51.0485,114.73179999999999,43.8038Q114.1697,43.013,113.58417,42.2371Q108.18246,34.6706,107.48492,29.7879L107.47904,29.7467L107.47087,29.7058Q105.58132,20.2581,105.50336,3L125.5,3L125.5,17.4891L126.4091,17.8787Q129.4993,19.2031,132.2534,23.3343L155.2418,57.6813Q122.9821,59.0611,118.9904,24.3309L118.9902,24.3288Q118.9824,24.2609,118.9685,24.194Q118.9545,24.1271,118.9346,24.0618Q118.91460000000001,23.9965,118.8888,23.9332Q118.863,23.87,118.8315,23.8093Q118.8001,23.7487,118.7632,23.6911Q118.7264,23.6336,118.6845,23.5797Q118.6426,23.5257,118.5959,23.4758Q118.5493,23.4259,118.4983,23.3804Q118.4473,23.335,118.3924,23.2943Q118.3375,23.2537,118.2791,23.2182Q118.2207,23.1827,118.1594,23.1527Q118.098,23.1227,118.0342,23.0983Q117.9703,23.074,117.9045,23.0556Q117.8388,23.0372,117.7716,23.0248Q117.70439999999999,23.0124,117.6363,23.0062Q117.5683,23,117.5,23Q117.4263,23,117.353,23.0072Q117.2796,23.0144,117.2074,23.0288Q117.1351,23.0432,117.0646,23.0646Q116.9941,23.086,116.926,23.1142Q116.8579,23.1424,116.7929,23.1771Q116.7279,23.2119,116.6666,23.2528Q116.6054,23.2937,116.5484,23.3405Q116.4914,23.3872,116.4393,23.4393Q116.3872,23.4914,116.3405,23.5484Q116.2937,23.6054,116.25280000000001,23.6666Q116.2119,23.7279,116.1771,23.7929Q116.1424,23.8579,116.1142,23.926Q116.086,23.9941,116.0646,24.0646Q116.0432,24.1351,116.0288,24.2074Q116.0144,24.2796,116.0072,24.353Q116,24.4263,116,24.5Q116,24.5859,116.0098,24.6712Q116.0101,24.6736,116.0104,24.6761Q120.4385,63.193,157.1793,60.5759L172.7518,83.8318ZM122.0733,57.0281Q125.5763,65.38159999999999,127.0986,75L130.5001,75L130.5006,66.5036Q129.1043,64.4511,127.4066,62.5279Q124.5633,59.6837,122.0733,57.0281ZM133.5003,71.7943Q136.7105,78.7423,136.9761,87L128.2125,87Q128.0637,82.3744,127.5215,78L133.4999,78L133.5003,71.7943Z" fill-rule="evenodd" fill="#000000" fill-opacity="1"/></g><g><path d="M109.50140321,6.25Q113.01814,6.25037,114.88388,8.116109Q115.19588,8.428103,115.45571,8.78627Q115.68318,8.450299,115.95356,8.155336Q117.70012,6.24999,121,6.25Q121.0614,6.25,121.1225,6.2560199999999995Q121.1836,6.26204,121.2439,6.27402Q121.3041,6.286,121.3629,6.30382Q121.4216,6.32165,121.4784,6.34515Q121.5351,6.36865,121.5892,6.3976Q121.6434,6.42655,121.6945,6.46066Q121.74549999999999,6.49478,121.793,6.533737Q121.8405,6.572694,121.8839,6.616117Q121.9273,6.659539,121.9663,6.707008Q122.0052,6.754478,122.0393,6.805537Q122.0735,6.856597,122.1024,6.910754Q122.1313,6.964912,122.1548,7.021646Q122.17830000000001,7.07838,122.1962,7.137144Q122.214,7.195909,122.226,7.256137Q122.238,7.316366,122.244,7.377479Q122.25,7.4385914,122.25,7.5Q122.25,7.5614086,122.244,7.622521Q122.238,7.683634,122.226,7.743863Q122.214,7.804091,122.1962,7.862856Q122.17830000000001,7.92162,122.1548,7.978354Q122.1313,8.035088,122.1024,8.089246Q122.0735,8.143403,122.0393,8.194463Q122.0052,8.245522,121.9663,8.292992Q121.9273,8.340461,121.8839,8.383883Q121.8405,8.427306,121.793,8.466263Q121.74549999999999,8.50522,121.6945,8.53934Q121.6434,8.57345,121.5892,8.6024Q121.5351,8.63135,121.4784,8.65485Q121.4216,8.67835,121.3629,8.69618Q121.3041,8.714,121.2439,8.72598Q121.1836,8.73796,121.1225,8.74398Q121.0614,8.75,121,8.75Q118.79988,8.75,117.79644,9.84465Q116.75,10.98622,116.75,13.49999L116.64565,13.49999Q116.60936,13.58314,116.56144,13.66019Q116.51352,13.73723,116.45498,13.80654Q116.39644,13.87586,116.3285,13.93599Q116.26057,13.99613,116.18466,14.045819999999999Q116.10875,14.09552,116.02646,14.13373Q115.94417,14.17194,115.85723,14.19787Q115.77028,14.2238,115.68051,14.2369Q115.59073,14.25,115.5,14.25Q115.40927,14.25,115.31949,14.2369Q115.22972,14.2238,115.14277,14.19787Q115.05583,14.17194,114.97354,14.13373Q114.89125,14.09552,114.81534,14.045819999999999Q114.73943,13.99613,114.6715,13.93599Q114.60356,13.87586,114.54502,13.80654Q114.48648,13.73723,114.43856,13.66019Q114.39064,13.58314,114.35435,13.49999L114.25,13.49999Q114.25,11.017759999999999,113.11612,9.88388Q111.98223,8.75,109.50000193715,8.75L109.5,8.75Q109.4385914,8.75,109.377479,8.74398Q109.316366,8.73796,109.256137,8.72598Q109.195909,8.714,109.137144,8.69618Q109.07838,8.67835,109.021646,8.65485Q108.964912,8.63135,108.910754,8.6024Q108.856597,8.57345,108.805537,8.53934Q108.754478,8.50522,108.707008,8.466263Q108.659539,8.427306,108.616117,8.383883Q108.572694,8.340461,108.533737,8.292992Q108.49478,8.245522,108.46066,8.194463Q108.42655,8.143403,108.3976,8.089246Q108.36865,8.035088,108.34515,7.978354Q108.32165,7.92162,108.30382,7.862856Q108.286,7.804091,108.27402,7.743863Q108.26204,7.683634,108.25602,7.622521Q108.25,7.5614086,108.25,7.5Q108.25,7.4385915,108.25602,7.377479Q108.26204,7.316366,108.27402,7.256137Q108.286,7.195909,108.30382,7.137145Q108.32165,7.07838,108.34515,7.021646Q108.36865,6.964912,108.3976,6.910755Q108.42655,6.856597,108.46066,6.805538Q108.49478,6.754478,108.533736,6.707009Q108.572693,6.65954,108.616116,6.616117Q108.659538,6.5726949999999995,108.707007,6.533738Q108.754477,6.49478,108.805536,6.46066Q108.856595,6.42655,108.910753,6.3976Q108.96491,6.36865,109.021644,6.34515Q109.078378,6.32165,109.137143,6.30382Q109.195907,6.286,109.256135,6.27402Q109.316364,6.26204,109.377477,6.2560199999999995Q109.4385896,6.25,109.49999806285,6.25L109.5,6.25L109.50140321,6.25Z" fill-rule="evenodd" fill="#000000" fill-opacity="1"/></g></g><g><path d="M35.75,125.5L35.75,107.5L40.25,107.5L40.25,103L49.25,103L49.25,107.5L53.75,107.5L53.75,125.5L49.25,125.5L49.25,116.5L40.25,116.5L40.25,125.5L35.75,125.5ZM40.25,112L49.25,112L49.25,107.68L40.25,107.68L40.25,112ZM67.25,125.5L67.25,107.5L62.75,107.5L62.75,103L76.25,103L76.25,107.5L71.75,107.5L71.75,125.5L67.25,125.5ZM85.25,125.5L85.25,103L89.75,103L89.75,112L98.75,112L98.75,103L103.25,103L103.25,125.5L98.75,125.5L98.75,116.5L89.75,116.5L89.75,125.5L85.25,125.5ZM112.25,125.5L112.25,103L125.75,103L125.75,107.5L116.75,107.5L116.75,112L125.75,112L125.75,116.5L116.75,116.5L116.75,121L125.75,121L125.75,125.5L112.25,125.5ZM134.75,125.5L134.75,103L139.25,103L139.25,107.5L143.75,107.5L143.75,112L148.25,112L148.25,116.5L152.75,116.5L152.75,103L157.25,103L157.25,125.5L152.75,125.5L152.75,121L148.25,121L148.25,116.5L143.75,116.5L143.75,112L139.25,112L139.25,125.5L134.75,125.5ZM166.25,125.5L166.25,103L170.75,103L170.75,125.5L166.25,125.5ZM184.25,125.5L184.25,121L179.75,121L179.75,103L184.25,103L184.25,121L193.25,121L193.25,125.5L184.25,125.5ZM193.25,121L193.25,103L197.75,103L197.75,121L193.25,121ZM206.75,125.5L206.75,103L211.25,103L211.25,107.5L215.75,107.5L215.75,112L220.25,112L220.25,116.5L215.75,116.5L215.75,112L211.25,112L211.25,125.5L206.75,125.5ZM224.75,125.5L224.75,112L220.25,112L220.25,107.5L224.75,107.5L224.75,103L229.25,103L229.25,125.5L224.75,125.5Z" fill="#000000" fill-opacity="1"/><path d="M98.75,125.5L103.25,125.5L103.25,121L103.25,103L98.75,103L98.75,112L89.75,112L89.75,107.5L89.75,103L85.25,103L85.25,107.5L85.25,112L85.25,125.5L89.75,125.5L89.75,121L89.75,116.5L98.75,116.5L98.75,125.5ZM116.75,103L112.25,103L112.25,107.5L112.25,125.5L125.75,125.5L125.75,121L116.75,121L116.75,116.5L125.75,116.5L125.75,112L116.75,112L116.75,107.5L125.75,107.5L125.75,103L116.75,103ZM134.75,112L134.75,125.5L139.25,125.5L139.25,112L143.75,112L143.75,116.5L148.25,116.5L148.25,121L152.75,121L152.75,125.5L157.25,125.5L157.25,103L152.75,103L152.75,116.5L148.25,116.5L148.25,112L143.75,112L143.75,107.5L139.25,107.5L139.25,103L134.75,103L134.75,112ZM166.25,103L166.25,125.5L170.75,125.5L170.75,103L166.25,103ZM179.75,103L179.75,121L184.25,121L184.25,125.5L193.25,125.5L193.25,121L197.75,121L197.75,103L193.25,103L193.25,121L184.25,121L184.25,103L179.75,103ZM206.75,125.5L211.25,125.5L211.25,112L215.75,112L215.75,116.5L220.25,116.5L220.25,112L224.75,112L224.75,125.5L229.25,125.5L229.25,103L224.75,103L224.75,107.5L220.25,107.5L220.25,112L215.75,112L215.75,107.5L211.25,107.5L211.25,103L206.75,103L206.75,125.5ZM35.75,125.5L40.25,125.5L40.25,116.5L49.25,116.5L49.25,125.5L53.75,125.5L53.75,116.5L53.75,107.5L49.25,107.5L49.25,103L40.25,103L40.25,107.5L35.75,107.5L35.75,125.5ZM40.25,107.68L40.25,112L49.25,112L49.25,107.68L40.25,107.68ZM62.75,103L62.75,107.5L67.25,107.5L67.25,107.68L67.25,125.5L71.75,125.5L71.75,107.5L76.25,107.5L76.25,103L62.75,103Z" fill-rule="evenodd" fill="#000000" fill-opacity="1"/></g></g></svg>