<svg xmlns="http://www.w3.org/2000/svg" xmlns:xlink="http://www.w3.org/1999/xlink" fill="none" version="1.1" width="73" height="90" viewBox="0 0 73 90"><g><g><path d="M15.5,25.5Q20,58.5,52.5,59.5L55.5,59.5L27,17L23.5,17L15.5,25.5Z" fill="#FF9926" fill-opacity="1"/></g><g><path d="M17,52L24,76.4999L29.5,76.4999L29.5,65.9999L17,52Z" fill="#00E4C5" fill-opacity="1"/></g><g><path d="M70.2518,83.8318L70.2536,83.8346Q70.3565,83.9882,70.4935,84.1122Q70.6305,84.2362,70.7936,84.3232Q70.9566,84.4103,71.1359,84.4551Q71.3152,84.5,71.5,84.5Q71.5737,84.5,71.647,84.4928Q71.7204,84.4856,71.7926,84.4712Q71.8649,84.4568,71.9354,84.4354Q72.0059,84.414,72.074,84.3858Q72.1421,84.3576,72.2071,84.3229Q72.2721,84.2881,72.3334,84.2472Q72.3946,84.2063,72.4516,84.1595Q72.5086,84.1128,72.5607,84.0607Q72.6128,84.0085,72.6595,83.9516Q72.7063,83.8946,72.7472,83.8333Q72.7881,83.7721,72.8229,83.7071Q72.8576,83.6421,72.8858,83.574Q72.914,83.5059,72.9354,83.4354Q72.9568,83.3649,72.9712,83.2926Q72.9856,83.2204,72.9928,83.147Q73,83.0737,73,83Q73,82.7771,72.9352,82.5639Q72.8704,82.3506,72.7464,82.1654L72.7445,82.1626L56.6842,58.178L32.2466,21.6657Q29.3819,17.3687,26,15.5589L26,0L0,0L0,1.5Q0,20.1119,2.02116,30.2543Q2.8386899999999997,35.8549,8.654399999999999,43.9969Q9.206610000000001,44.77,9.80485,45.5677Q21.903,62.6068,22.7109,87L12.5,87Q12.4263,87,12.353,87.0072Q12.2796,87.0145,12.2074,87.0288Q12.1351,87.0432,12.0646,87.0646Q11.9941,87.086,11.926,87.1142Q11.8579,87.1424,11.7929,87.1771Q11.7279,87.2118,11.6666,87.2528Q11.6054,87.2937,11.5484,87.3405Q11.49145,87.3872,11.43934,87.4393Q11.38723,87.4914,11.34048,87.5484Q11.29374,87.6054,11.25279,87.6666Q11.21185,87.7279,11.17712,87.7929Q11.14238,87.8579,11.11418,87.926Q11.08598,87.994,11.06459,88.0646Q11.0432,88.1351,11.02882,88.2074Q11.01445,88.2796,11.00722,88.353Q11,88.4263,11,88.5Q11,88.5737,11.00722,88.647Q11.01445,88.7204,11.02882,88.7926Q11.0432,88.8649,11.06459,88.9354Q11.08598,89.0059,11.11418,89.074Q11.14238,89.1421,11.17712,89.2071Q11.21185,89.2721,11.25279,89.3333Q11.29374,89.3946,11.34048,89.4516Q11.38723,89.5086,11.43934,89.5607Q11.49145,89.6128,11.5484,89.6595Q11.6054,89.7063,11.6666,89.7472Q11.7279,89.7881,11.7929,89.8229Q11.8579,89.8576,11.926,89.8858Q11.9941,89.914,12.0646,89.9354Q12.1351,89.9568,12.2074,89.9712Q12.2796,89.9855,12.353,89.9928Q12.4263,90,12.5,90L37.5,90L37.5,88.5Q37.5,82.9912,36.3076,78L41.5,78L41.5,64Q41.5,63.9263,41.4928,63.853Q41.4856,63.7796,41.4712,63.7074Q41.4568,63.6351,41.4354,63.5646Q41.414,63.494,41.3858,63.426Q41.3576,63.3579,41.3229,63.2929Q41.2881,63.2279,41.2472,63.1666Q41.2063,63.1054,41.1595,63.0484Q41.1128,62.9914,41.0607,62.9393Q41.0086,62.8872,40.9516,62.8405Q40.8946,62.7937,40.8333,62.7528Q40.7721,62.7119,40.7071,62.6771Q40.6421,62.6424,40.574,62.6142Q40.5059,62.586,40.4354,62.5646Q40.3649,62.5432,40.2926,62.5288Q40.2204,62.5145,40.147,62.5072Q40.0737,62.5,40,62.5Q39.9263,62.5,39.853,62.5072Q39.7796,62.5145,39.7074,62.5288Q39.6351,62.5432,39.5646,62.5646Q39.4941,62.586,39.426,62.6142Q39.3579,62.6424,39.2929,62.6771Q39.2279,62.7119,39.1666,62.7528Q39.1054,62.7937,39.0484,62.8405Q38.9914,62.8872,38.9393,62.9393Q38.8872,62.9914,38.8405,63.0484Q38.7937,63.1054,38.7528,63.1666Q38.7119,63.2279,38.6771,63.2929Q38.6424,63.3579,38.6142,63.426Q38.586,63.494,38.5646,63.5646Q38.5432,63.6351,38.5288,63.7074Q38.5144,63.7796,38.5072,63.853Q38.5,63.9263,38.5,64L38.5,75L35.5,75Q35.4842,75,35.4683,75.0003Q33.797,69.8105,30.7507,65.2175Q29.1306,62.7749,27.1235,60.5061L27.0931,60.4718L27.0607,60.4393Q17.6698,51.0485,12.2318,43.8038Q11.6697,43.013,11.08417,42.2371Q5.68246,34.6706,4.98492,29.7879L4.9790399999999995,29.7467L4.97087,29.7058Q3.08132,20.2581,3.00336,3L23,3L23,17.4891L23.9091,17.8787Q26.9993,19.2031,29.7534,23.3343L52.7418,57.6813Q20.4821,59.0611,16.4904,24.3309L16.4902,24.3288Q16.4824,24.2609,16.4685,24.194Q16.4545,24.1271,16.4346,24.0618Q16.4146,23.9965,16.3888,23.9332Q16.363,23.87,16.3315,23.8093Q16.3001,23.7487,16.263199999999998,23.6911Q16.226399999999998,23.6336,16.1845,23.5797Q16.1426,23.5257,16.0959,23.4758Q16.049300000000002,23.4259,15.9983,23.3804Q15.9473,23.335,15.8924,23.2943Q15.8375,23.2537,15.7791,23.2182Q15.7207,23.1827,15.6594,23.1527Q15.598,23.1227,15.5342,23.0983Q15.4703,23.074,15.4045,23.0556Q15.3388,23.0372,15.2716,23.0248Q15.2044,23.0124,15.1363,23.0062Q15.0683,23,15,23Q14.9263,23,14.853,23.0072Q14.7796,23.0144,14.7074,23.0288Q14.6351,23.0432,14.5646,23.0646Q14.4941,23.086,14.426,23.1142Q14.3579,23.1424,14.2929,23.1771Q14.2279,23.2119,14.1666,23.2528Q14.1054,23.2937,14.0484,23.3405Q13.9914,23.3872,13.9393,23.4393Q13.8872,23.4914,13.8405,23.5484Q13.7937,23.6054,13.7528,23.6666Q13.7119,23.7279,13.6771,23.7929Q13.6424,23.8579,13.6142,23.926Q13.586,23.9941,13.5646,24.0646Q13.5432,24.1351,13.5288,24.2074Q13.5144,24.2796,13.5072,24.353Q13.5,24.4263,13.5,24.5Q13.5,24.5859,13.5098,24.6712Q13.5101,24.6736,13.5104,24.6761Q17.9385,63.193,54.6793,60.5759L70.2518,83.8318ZM19.5733,57.0281Q23.0763,65.38159999999999,24.5986,75L28.0001,75L28.0006,66.5036Q26.6043,64.4511,24.9066,62.5279Q22.0633,59.6837,19.5733,57.0281ZM31.0003,71.7943Q34.2105,78.7423,34.4761,87L25.7125,87Q25.5637,82.3744,25.0215,78L30.9999,78L31.0003,71.7943Z" fill-rule="evenodd" fill="#000000" fill-opacity="1"/></g><g><path d="M7.00140321,6.25Q10.518139999999999,6.25037,12.383880000000001,8.116109Q12.695879999999999,8.428103,12.95571,8.78627Q13.18318,8.450299,13.45356,8.155336Q15.20012,6.24999,18.5,6.25Q18.5614,6.25,18.622500000000002,6.2560199999999995Q18.6836,6.26204,18.7439,6.27402Q18.8041,6.286,18.8629,6.30382Q18.921599999999998,6.32165,18.9784,6.34515Q19.0351,6.36865,19.089199999999998,6.3976Q19.1434,6.42655,19.194499999999998,6.46066Q19.2455,6.49478,19.293,6.533737Q19.3405,6.572694,19.3839,6.616117Q19.427300000000002,6.659539,19.4663,6.707008Q19.505200000000002,6.754478,19.5393,6.805537Q19.5735,6.856597,19.6024,6.910754Q19.6313,6.964912,19.6548,7.021646Q19.6783,7.07838,19.696199999999997,7.137144Q19.714,7.195909,19.726,7.256137Q19.738,7.316366,19.744,7.377479Q19.75,7.4385914,19.75,7.5Q19.75,7.5614086,19.744,7.622521Q19.738,7.683634,19.726,7.743863Q19.714,7.804091,19.696199999999997,7.862856Q19.6783,7.92162,19.6548,7.978354Q19.6313,8.035088,19.6024,8.089246Q19.5735,8.143403,19.5393,8.194463Q19.505200000000002,8.245522,19.4663,8.292992Q19.427300000000002,8.340461,19.3839,8.383883Q19.3405,8.427306,19.293,8.466263Q19.2455,8.50522,19.194499999999998,8.53934Q19.1434,8.57345,19.089199999999998,8.6024Q19.0351,8.63135,18.9784,8.65485Q18.921599999999998,8.67835,18.8629,8.69618Q18.8041,8.714,18.7439,8.72598Q18.6836,8.73796,18.622500000000002,8.74398Q18.5614,8.75,18.5,8.75Q16.29988,8.75,15.29644,9.84465Q14.25,10.98622,14.25,13.49999L14.14565,13.49999Q14.109359999999999,13.58314,14.061440000000001,13.66019Q14.01352,13.73723,13.954979999999999,13.80654Q13.89644,13.87586,13.8285,13.93599Q13.760570000000001,13.99613,13.684660000000001,14.045819999999999Q13.60875,14.09552,13.52646,14.13373Q13.44417,14.17194,13.357230000000001,14.19787Q13.27028,14.2238,13.18051,14.2369Q13.09073,14.25,13,14.25Q12.90927,14.25,12.81949,14.2369Q12.72972,14.2238,12.642769999999999,14.19787Q12.55583,14.17194,12.47354,14.13373Q12.39125,14.09552,12.315339999999999,14.045819999999999Q12.239429999999999,13.99613,12.1715,13.93599Q12.10356,13.87586,12.045020000000001,13.80654Q11.98648,13.73723,11.938559999999999,13.66019Q11.890640000000001,13.58314,11.85435,13.49999L11.75,13.49999Q11.75,11.017759999999999,10.61612,9.88388Q9.48223,8.75,7.00000193715,8.75L7,8.75Q6.9385914,8.75,6.877479,8.74398Q6.816366,8.73796,6.756137,8.72598Q6.695909,8.714,6.637144,8.69618Q6.57838,8.67835,6.521646,8.65485Q6.464912,8.63135,6.410754,8.6024Q6.356597,8.57345,6.305537,8.53934Q6.254478,8.50522,6.207008,8.466263Q6.159539,8.427306,6.116117,8.383883Q6.072694,8.340461,6.033737,8.292992Q5.99478,8.245522,5.96066,8.194463Q5.92655,8.143403,5.8976,8.089246Q5.86865,8.035088,5.84515,7.978354Q5.82165,7.92162,5.80382,7.862856Q5.786,7.804091,5.77402,7.743863Q5.76204,7.683634,5.7560199999999995,7.622521Q5.75,7.5614086,5.75,7.5Q5.75,7.4385915,5.7560199999999995,7.377479Q5.76204,7.316366,5.77402,7.256137Q5.786,7.195909,5.80382,7.137145Q5.82165,7.07838,5.84515,7.021646Q5.86865,6.964912,5.8976,6.910755Q5.92655,6.856597,5.96066,6.805538Q5.99478,6.754478,6.033736,6.707009Q6.072693,6.65954,6.116116,6.616117Q6.1595379999999995,6.5726949999999995,6.207007,6.533738Q6.254477,6.49478,6.305536,6.46066Q6.356595,6.42655,6.410753,6.3976Q6.46491,6.36865,6.521644,6.34515Q6.578378,6.32165,6.637143,6.30382Q6.695907,6.286,6.7561350000000004,6.27402Q6.816364,6.26204,6.877477,6.2560199999999995Q6.9385896,6.25,6.99999806285,6.25L6.999999999999998,6.25L7.00140321,6.25Z" fill-rule="evenodd" fill="#000000" fill-opacity="1"/></g></g></svg>